<?xml version="1.0" encoding="UTF-8" standalone="no"?>
<svg
   xmlns:osb="http://www.openswatchbook.org/uri/2009/osb"
   xmlns:dc="http://purl.org/dc/elements/1.1/"
   xmlns:cc="http://creativecommons.org/ns#"
   xmlns:rdf="http://www.w3.org/1999/02/22-rdf-syntax-ns#"
   xmlns:svg="http://www.w3.org/2000/svg"
   xmlns="http://www.w3.org/2000/svg"
   xmlns:xlink="http://www.w3.org/1999/xlink"
   xmlns:sodipodi="http://sodipodi.sourceforge.net/DTD/sodipodi-0.dtd"
   xmlns:inkscape="http://www.inkscape.org/namespaces/inkscape"
   width="148"
   height="43"
   viewBox="1 2 148 43"
   enable-background="new 1 2 148 43"
   id="svg2"
   version="1.1"
   inkscape:version="0.91 r13725"
   sodipodi:docname="logo.svg">
  <metadata
     id="metadata42">
    <rdf:RDF>
      <cc:Work
         rdf:about="">
        <dc:format>image/svg+xml</dc:format>
        <dc:type
           rdf:resource="http://purl.org/dc/dcmitype/StillImage" />
        <dc:title></dc:title>
      </cc:Work>
    </rdf:RDF>
  </metadata>
  <defs
     id="defs40">
    <linearGradient
       id="linearGradient4148"
       osb:paint="solid">
      <stop
         style="stop-color:#88cc88;stop-opacity:1;"
         offset="0"
         id="stop4150" />
    </linearGradient>
    <linearGradient
       id="linearGradient4180"
       osb:paint="solid">
      <stop
         style="stop-color:#ff5501;stop-opacity:1;"
         offset="0"
         id="stop4182" />
    </linearGradient>
    <linearGradient
       inkscape:collect="always"
       xlink:href="#linearGradient4180"
       id="linearGradient4211"
       gradientUnits="userSpaceOnUse"
       x1="46.140133"
       y1="159.7234"
       x2="170.50581"
       y2="159.7234" />
  </defs>
  <sodipodi:namedview
     pagecolor="#ffffff"
     bordercolor="#666666"
     borderopacity="1"
     objecttolerance="10"
     gridtolerance="10"
     guidetolerance="10"
     inkscape:pageopacity="0"
     inkscape:pageshadow="2"
     inkscape:window-width="1600"
     inkscape:window-height="837"
     id="namedview38"
     showgrid="false"
     inkscape:zoom="1.4142136"
     inkscape:cx="-80.824857"
     inkscape:cy="-60.017546"
     inkscape:window-x="-8"
     inkscape:window-y="-8"
     inkscape:window-maximized="1"
     inkscape:current-layer="svg2"
     inkscape:snap-text-baseline="true" />
  <text
     xml:space="preserve"
     style="font-style:normal;font-weight:normal;font-size:40px;line-height:125%;font-family:Deutschlander;letter-spacing:0px;word-spacing:0px;fill:#000000;fill-opacity:1;stroke:none;stroke-width:1px;stroke-linecap:butt;stroke-linejoin:miter;stroke-opacity:1;-inkscape-font-specification:Deutschlander;font-stretch:normal;font-variant:normal;"
     x="8.5"
     y="42"
     id="text4170"
     sodipodi:linespacing="125%"><tspan
       sodipodi:role="line"
       id="tspan4172"
       x="8.5"
       y="42" /></text>
  <text
     xml:space="preserve"
     style="font-style:normal;font-variant:normal;font-weight:normal;font-stretch:normal;font-size:40px;line-height:125%;font-family:Ming;-inkscape-font-specification:Ming;text-align:start;letter-spacing:0px;word-spacing:0px;writing-mode:lr-tb;text-anchor:start;fill:#b81e0d;fill-opacity:1;stroke:none;stroke-width:1px;stroke-linecap:butt;stroke-linejoin:miter;stroke-opacity:1;"
     x="2.4142144"
     y="38.63604"
     id="text3358"
     sodipodi:linespacing="125%"><tspan
       sodipodi:role="line"
       id="tspan3360"
       x="2.4142144"
       y="38.63604" /></text>
  <text
     xml:space="preserve"
     style="font-style:normal;font-variant:normal;font-weight:normal;font-stretch:normal;font-size:40px;line-height:125%;font-family:'Press Serif Cool';-inkscape-font-specification:'Press Serif Cool, Normal';text-align:start;letter-spacing:0px;word-spacing:0px;writing-mode:lr-tb;text-anchor:start;fill:#b81e0d;fill-opacity:1;stroke:none;stroke-width:1px;stroke-linecap:butt;stroke-linejoin:miter;stroke-opacity:1;"
     x="5.9497471"
     y="41.464466"
     id="text4162"
     sodipodi:linespacing="125%"><tspan
       sodipodi:role="line"
       id="tspan4164"
       x="5.9497471"
       y="41.464466" /></text>
  <text
     xml:space="preserve"
     style="font-style:normal;font-variant:normal;font-weight:normal;font-stretch:normal;font-size:40px;line-height:125%;font-family:'Press Serif Cool';-inkscape-font-specification:'Press Serif Cool, Normal';text-align:start;letter-spacing:0px;word-spacing:0px;writing-mode:lr-tb;text-anchor:start;fill:#444444;fill-opacity:1;stroke:none;stroke-width:1px;stroke-linecap:butt;stroke-linejoin:miter;stroke-opacity:1;"
     x="7.3639607"
     y="41.464466"
     id="text4166"
     sodipodi:linespacing="125%"><tspan
       sodipodi:role="line"
       id="tspan4168"
       x="7.3639607"
       y="41.464466" /></text>
  <g
     style="font-style:normal;font-variant:normal;font-weight:normal;font-stretch:normal;font-size:40px;line-height:125%;font-family:Ming;-inkscape-font-specification:Ming;text-align:start;letter-spacing:0px;word-spacing:0px;writing-mode:lr-tb;text-anchor:start;fill:#444444;fill-opacity:1;stroke:none;stroke-width:1px;stroke-linecap:butt;stroke-linejoin:miter;stroke-opacity:1"
     id="text4171">
    <path
       d="m 16.56132,28.928932 -2.88,-11 -2.8,9.4 q 2.52,1.28 5.68,1.6 z m 4.68,0.04 q 0.8,-0.04 2.72,-0.52 l 0.24,0.12 q -1.16,0.92 -2.64,1.48 l 2.4,7.88 -4.96,0 -2,-7.08 q -0.8,0.08 -1.72,0.08 -2.64,0 -5.28,-0.56 l -2.28,7.56 -4.4,0 3.08,-8.96 q -0.88,-0.44 -2.28,-1.2 l 1.52,-4.2 q 0.2,0.24 2.04,1.72 l 4.08,-11.8 3.96,-2.24 5.52,17.72 z m -9.68,-15.48 0,0 z m -8.32,24.44 0,0 z"
       style=""
       id="path4180" />
    <path
       d="m 36.05507,34.328932 0,-13.24 q -0.52,-0.24 -1.24,-0.24 -2,0 -3.24,1.8 -1.52,2.12 -1.52,6.6 0,2.72 0.88,4.44 0.92,1.68 2.52,1.68 1.96,0 2.6,-1.04 z m 0.04,-21 4.12,-2.08 0,24.4 q -0.88,0.72 -3.2,1.96 -1.84,0.72 -4.2,0.72 -1.6,0 -3.24,-0.76 -1.84,-0.88 -2.68,-2.32 -1.2,-2.12 -1.2,-5.08 0,-4.8 2.44,-8.4 1.48,-2.12 2.84,-2.88 1.64,-0.96 3.48,-0.96 0.76,0 1.6,0.32 l 0.04,-4.92 z"
       style=""
       id="path4182" />
    <path
       d="m 67.094445,37.928932 -4.12,0 -0.04,-12.92 q 0,-3.52 -1.8,-3.52 -1.52,0 -3.12,1.92 l 0,14.52 -4.16,0 0,-12.92 q 0,-1.68 -0.2,-2.32 -0.36,-1.32 -1.64,-1.32 -1.68,0 -3.08,2.04 l 0,14.52 -4.16,0 0,-16.28 q 1.24,-0.88 3.92,-2.44 2.76,-1.36 4.6,-1.36 2.76,0 4.12,2.88 2.6,-2.88 4.92,-2.88 4.76,0 4.76,7.08 l 0,13 z"
       style=""
       id="path4184" />
    <path
       d="m 76.45132,13.768932 q 0,1.08 -0.76,1.88 -0.76,0.76 -1.84,0.76 -1.12,0 -1.88,-0.76 -0.76,-0.8 -0.76,-1.88 0,-1.08 0.76,-1.84 0.76,-0.76 1.88,-0.76 1.08,0 1.84,0.76 0.76,0.76 0.76,1.84 z m -0.56,24.16 -4.12,0 0,-18.04 4.12,-2.08 0,20.12 z"
       style=""
       id="path4186" />
    <path
       d="m 93.799445,22.728932 0,15.2 -4.12,0 0,-13.12 q 0,-3.64 -2.04,-3.64 -1.72,0 -3.08,2.04 l 0,14.72 -4.16,0 0,-16.48 q 1.24,-0.88 3.88,-2.44 2.4,-1.16 4.6,-1.16 2.4,0 3.76,1.56 1.16,1.36 1.16,3.32 z"
       style=""
       id="path4188" />
  </g>
  <g
     style="font-style:normal;font-variant:normal;font-weight:normal;font-stretch:normal;font-size:40px;line-height:125%;font-family:Ming;-inkscape-font-specification:Ming;text-align:start;letter-spacing:0px;word-spacing:0px;writing-mode:lr-tb;text-anchor:start;fill:#b81e0d;fill-opacity:1;stroke:none;stroke-width:1px;stroke-linecap:butt;stroke-linejoin:miter;stroke-opacity:1"
     id="text4175">
    <path
       d="m 117.15231,24.608932 q 0,5.12 -2.4,9.2 -2.84,4.8 -7.64,4.8 -4.84,0 -7.679998,-4.88 -2.36,-4.08 -2.36,-9.28 0,-5.16 2.48,-9.16 2.919998,-4.68 7.759998,-4.68 4.68,0 7.48,4.84 2.36,4.08 2.36,9.16 z m -5.16,-0.2 q 0,-3.76 -0.84,-6.56 -1.28,-4.16 -4.12,-4.16 -2.72,0 -3.96,4.32 -0.84,2.88 -0.84,6.56 0,3.8 0.8,6.64 1.28,4.32 4.08,4.32 2.88,0 4.12,-4.4 0.76,-2.8 0.76,-6.72 z"
       style=""
       id="path4191" />
    <path
       d="m 134.36294,34.608932 q -1.24,0.88 -3.92,2.44 -2.2,1.12 -4.56,1.2 -1.92,0.04 -3.28,-1.08 -1.64,-1.32 -1.64,-3.84 l 0.04,-15 4.08,0 0,12.92 q 0,3.64 2.04,3.64 1.68,0 3.08,-2.04 l 0,-14.52 4.16,0 0,16.28 z"
       style=""
       id="path4193" />
    <path
       d="m 147.54294,37.008932 q -1.16,1.32 -3.6,1.4 -1.84,0.04 -3.36,-1.2 -0.6,-0.72 -0.72,-1.68 -0.12,-0.64 -0.12,-2.72 l 0,-11.52 -2.6,0 0,-3 2.6,0 0,-2.92 4.16,-2.2 0,5.12 3.68,0 0,3 -3.68,0 0,13.68 q 0,2.12 1.56,2.12 1.32,0 2.08,-0.68 l 0,0.6 z"
       style=""
       id="path4195" />
  </g>
</svg>
