<?xml version="1.0" encoding="UTF-8" standalone="no"?>
<!-- Generator: Adobe Illustrator 20.1.0, SVG Export Plug-In . SVG Version: 6.00 Build 0)  -->

<svg
   version="1.1"
   id="Layer_1"
   x="0px"
   y="0px"
   viewBox="0 0 552.21628 670.30041"
   xml:space="preserve"
   sodipodi:docname="adminout.svg"
   width="552.21631"
   height="670.30042"
   inkscape:version="1.1.2 (0a00cf5339, 2022-02-04)"
   xmlns:inkscape="http://www.inkscape.org/namespaces/inkscape"
   xmlns:sodipodi="http://sodipodi.sourceforge.net/DTD/sodipodi-0.dtd"
   xmlns="http://www.w3.org/2000/svg"
   xmlns:svg="http://www.w3.org/2000/svg"
   xmlns:rdf="http://www.w3.org/1999/02/22-rdf-syntax-ns#"
   xmlns:cc="http://creativecommons.org/ns#"
   xmlns:dc="http://purl.org/dc/elements/1.1/"><defs
   id="defs1725" /><sodipodi:namedview
   id="namedview1723"
   pagecolor="#ffffff"
   bordercolor="#666666"
   borderopacity="1.0"
   inkscape:pageshadow="2"
   inkscape:pageopacity="0.0"
   inkscape:pagecheckerboard="0"
   showgrid="false"
   fit-margin-top="80"
   fit-margin-left="80"
   fit-margin-right="80"
   fit-margin-bottom="80"
   lock-margins="true"
   inkscape:zoom="0.46705588"
   inkscape:cx="508.50447"
   inkscape:cy="-81.360714"
   inkscape:window-width="1920"
   inkscape:window-height="1026"
   inkscape:window-x="0"
   inkscape:window-y="26"
   inkscape:window-maximized="1"
   inkscape:current-layer="Layer_1" />
<style
   type="text/css"
   id="style2">
	.st0{fill:#2B2B2B;}
	.st1{fill:#00B7AB;}
	.st2{fill:#BCBCBC;}
	.st3{fill:#B72225;}
	.st4{fill:none;stroke:#FFFFFF;stroke-miterlimit:10;}
	.st5{opacity:0.7;}
	.st6{fill:#FFFFFF;}
	.st7{opacity:0.65;}
	.st8{fill:none;}
	.st9{opacity:0.5;}
	.st10{font-family:'Avenir-Light';}
	.st11{font-size:15px;}
	.st12{font-family:'Avenir-Black';}
	.st13{fill:#444445;}
	.st14{fill:#99999A;}
	.st15{fill:#595959;}
	.st16{fill:#EAEAEA;}
	.st17{fill:#ADADAD;}
	.st18{fill:#606060;}
</style>
<title
   id="title4">GBC - Logo Vector</title>













































































































































































































<g
   id="text4171_31_"
   transform="translate(-814.9837,-9520.5996)">
	<path
   id="path4180_31_"
   class="st2"
   d="m 931.2,10028.4 -7.8,-29.9 -7.6,25.5 c 4.5,2.4 9.6,3.8 15.4,4.4 z m 12.7,0.1 c 1.4,-0.1 3.9,-0.5 7.4,-1.4 l 0.7,0.3 c -2.1,1.7 -4.5,3 -7.2,4 l 6.5,21.4 h -13.5 l -5.4,-19.2 c -1.4,0.1 -3,0.2 -4.7,0.2 -4.8,0 -9.6,-0.5 -14.3,-1.5 l -6.2,20.5 h -12 l 8.4,-24.3 c -1.6,-0.8 -3.7,-1.9 -6.2,-3.3 l 4.1,-11.4 c 0.4,0.4 2.2,2 5.5,4.7 l 11.1,-32.1 10.8,-6.1 z m -26.3,-42 m -22.6,66.4" />
	<path
   id="path4182_31_"
   class="st2"
   d="m 984.1,10043.1 v -36 c -0.9,-0.4 -2.1,-0.7 -3.4,-0.7 -3.6,0 -6.6,1.6 -8.8,4.9 -2.8,3.8 -4.1,9.8 -4.1,17.9 0,4.9 0.8,8.9 2.4,12.1 1.7,3 3.9,4.6 6.8,4.6 3.6,0 6,-0.9 7.1,-2.8 z m 0.1,-57.1 11.2,-5.7 v 66.3 c -1.6,1.3 -4.5,3.1 -8.7,5.3 -3.3,1.3 -7.1,2 -11.4,2 -2.9,0 -5.8,-0.7 -8.8,-2.1 -3.3,-1.6 -5.8,-3.7 -7.3,-6.3 -2.2,-3.8 -3.3,-8.4 -3.3,-13.8 0,-8.7 2.2,-16.3 6.6,-22.8 2.7,-3.8 5.3,-6.4 7.7,-7.8 3,-1.7 6.1,-2.6 9.5,-2.6 1.4,0 2.8,0.3 4.3,0.9 z" />
	<path
   id="path4184_31_"
   class="st2"
   d="m 1068.5,10052.9 h -11.2 l -0.1,-35.1 c 0,-6.4 -1.6,-9.6 -4.9,-9.6 -2.8,0 -5.6,1.7 -8.5,5.2 v 39.5 h -11.3 v -35.1 c 0,-3 -0.2,-5.1 -0.5,-6.3 -0.7,-2.4 -2.1,-3.6 -4.5,-3.6 -3,0 -5.8,1.8 -8.4,5.5 v 39.5 h -11.3 v -44.2 c 2.2,-1.6 5.8,-3.8 10.7,-6.6 5,-2.5 9.2,-3.7 12.5,-3.7 5,0 8.7,2.6 11.2,7.8 4.7,-5.2 9.2,-7.8 13.4,-7.8 8.6,0 12.9,6.4 12.9,19.2 z" />
	<path
   id="path4186_31_"
   class="st2"
   d="m 1093.9,9987.2 c 0,2 -0.7,3.7 -2.1,5.1 -1.4,1.4 -3,2.1 -5,2.1 -2,0 -3.7,-0.7 -5.1,-2.1 -1.4,-1.4 -2.1,-3.2 -2.1,-5.1 0,-2 0.7,-3.6 2.1,-5 1.4,-1.4 3.1,-2.1 5.1,-2.1 2,0 3.6,0.7 5,2.1 1.4,1.4 2.1,3.1 2.1,5 z m -1.5,65.7 h -11.2 v -49 l 11.2,-5.7 z" />
	<path
   id="path4188_31_"
   class="st2"
   d="m 1141,10011.6 v 41.3 h -11.2 v -35.6 c 0,-6.6 -1.8,-9.9 -5.5,-9.9 -3.1,0 -5.9,1.8 -8.4,5.5 v 40 h -11.3 v -44.8 c 2.2,-1.6 5.8,-3.8 10.5,-6.6 4.3,-2.1 8.5,-3.2 12.5,-3.2 4.3,0 7.8,1.4 10.2,4.2 2.2,2.5 3.2,5.5 3.2,9.1 z" />
</g>
<g
   id="text4175_31_"
   transform="translate(-814.9837,-9520.5996)">
	<path
   id="path4191_31_"
   class="st1"
   d="m 1204.5,10016.7 c 0,9.3 -2.2,17.6 -6.5,25 -5.1,8.7 -12.1,13 -20.8,13 -8.8,0 -15.7,-4.4 -20.9,-13.3 -4.3,-7.4 -6.4,-15.8 -6.4,-25.2 0,-9.3 2.2,-17.6 6.7,-24.9 5.3,-8.5 12.3,-12.7 21.1,-12.7 8.5,0 15.3,4.4 20.3,13.2 4.3,7.4 6.5,15.7 6.5,24.9 z m -14,-0.6 c 0,-6.8 -0.8,-12.8 -2.3,-17.8 -2.3,-7.5 -6.1,-11.3 -11.2,-11.3 -4.9,0 -8.5,3.9 -10.8,11.7 -1.5,5.2 -2.3,11.2 -2.3,17.8 0,6.9 0.7,12.9 2.2,18 2.3,7.8 6,11.7 11.1,11.7 5.2,0 8.9,-4 11.2,-12 1.4,-4.9 2.1,-11 2.1,-18.1 z" />
	<path
   id="path4193_31_"
   class="st1"
   d="m 1251.2,10043.8 c -2.2,1.6 -5.8,3.8 -10.7,6.6 -4,2 -8.1,3.1 -12.4,3.3 -3.5,0.1 -6.4,-0.9 -8.9,-2.9 -3,-2.4 -4.5,-5.9 -4.5,-10.4 l 0.1,-40.8 h 11.1 v 35.1 c 0,6.6 1.8,9.9 5.5,9.9 3,0 5.8,-1.8 8.4,-5.5 v -39.5 h 11.3 z" />
	<path
   id="path4195_31_"
   class="st1"
   d="m 1287.1,10050.4 c -2.1,2.4 -5.4,3.7 -9.8,3.8 -3.3,0.1 -6.4,-1 -9.1,-3.3 -1.1,-1.3 -1.7,-2.8 -2,-4.6 -0.2,-1.2 -0.3,-3.6 -0.3,-7.4 v -31.3 h -7.1 v -8.2 h 7.1 v -7.9 l 11.3,-6 v 13.9 h 10 v 8.2 h -10 v 37.2 c 0,3.8 1.4,5.8 4.2,5.8 2.4,0 4.3,-0.6 5.7,-1.8 z" />
</g>
<path
   class="st2"
   d="m 470.9163,410.30039 -7.2,-13 1.4,1.9 -124.1,-230.8 0.1,0.1 c -2.3,-4.4 -4.4,-8.3 -6.5,-11.8 l -0.1,-0.1 v 0 c -13.7,-23.6 -21.9,-28.3 -25.8,-28.8 v -0.1 h -63.7 v 0 c -3.5,-0.1 -11.8,3.1 -26.5,28.3 v 0 0.1 c -2.1,3.7 -4.4,7.8 -6.8,12.4 l 0.1,-0.1 -124.199998,230.3 -6.4,11.6 c 0,0 -9.499997,26.6 24.599998,26.6 h 68.7 c 0,0 7.5,2.5 23.1,-30.8 l 59.5,-111.6 v -33.1 h -23.4 v -16 h 42.2 0.6 42.2 v 16 h -23.4 v 33.1 l 59.5,111.6 c 15.5,33.3 23.1,30.8 23.1,30.8 h 68.7 c 33.9,0 24.3,-26.6 24.3,-26.6 z"
   id="path1632" />
<circle
   class="st18"
   cx="250.5163"
   cy="397.90039"
   r="18.5"
   id="circle1634" />
<circle
   class="st1"
   cx="153.61627"
   cy="98.5"
   r="18.5"
   id="circle1636" />
<circle
   class="st18"
   cx="178.5163"
   cy="140.7002"
   r="13.8"
   id="circle1638" />
<circle
   class="st18"
   cx="287.5163"
   cy="342.80078"
   r="9.3000002"
   id="circle1640" />
<g
   id="g1670"
   transform="translate(-814.9837,-9520.5996)">
	<path
   class="st2"
   d="m 896.1,10077.7 h 10 c 2.8,0 5.2,0.3 7.1,1 1.9,0.7 3.6,1.6 4.9,2.6 1.3,1.1 2.3,2.2 3.1,3.5 0.7,1.3 1.3,2.5 1.6,3.7 0.3,1.2 0.6,2.3 0.7,3.2 0.1,1 0.1,1.6 0.1,2 0,0.4 0,1.1 -0.1,2 -0.1,1 -0.3,2 -0.7,3.2 -0.3,1.2 -0.9,2.4 -1.6,3.7 -0.7,1.3 -1.8,2.5 -3.1,3.5 -1.3,1.1 -2.9,1.9 -4.9,2.6 -1.9,0.7 -4.3,1 -7.1,1 h -10 z m 3,29.5 h 6.2 c 2.1,0 4.1,-0.3 6,-0.8 1.9,-0.5 3.5,-1.3 4.8,-2.4 1.4,-1.1 2.4,-2.5 3.2,-4.2 0.8,-1.7 1.2,-3.7 1.2,-6 0,-2.3 -0.4,-4.3 -1.2,-6 -0.8,-1.7 -1.9,-3.1 -3.2,-4.2 -1.4,-1.1 -3,-1.9 -4.8,-2.4 -1.9,-0.5 -3.8,-0.8 -6,-0.8 h -6.2 z"
   id="path1642" />
	<path
   class="st2"
   d="m 930.3,10077.7 h 3 v 32.3 h -3 z"
   id="path1644" />
	<path
   class="st2"
   d="m 968.8,10107.9 c -1.9,1.1 -3.8,1.8 -5.9,2.3 -2,0.4 -4.1,0.7 -6.2,0.7 -2.5,0 -4.7,-0.4 -6.8,-1.3 -2.1,-0.8 -3.8,-2 -5.3,-3.5 -1.5,-1.5 -2.6,-3.3 -3.4,-5.4 -0.8,-2.1 -1.2,-4.4 -1.2,-6.8 0,-2.5 0.4,-4.7 1.2,-6.8 0.8,-2.1 2,-3.9 3.4,-5.4 1.5,-1.5 3.2,-2.7 5.3,-3.5 2.1,-0.8 4.3,-1.3 6.8,-1.3 4.8,0 8.7,1.5 11.6,4.5 l -2.2,2.3 c -0.5,-0.6 -1.1,-1.1 -1.8,-1.6 -0.7,-0.5 -1.5,-0.9 -2.3,-1.3 -0.8,-0.3 -1.7,-0.6 -2.6,-0.8 -0.9,-0.2 -1.8,-0.3 -2.7,-0.3 -2.1,0 -4,0.4 -5.7,1.1 -1.7,0.7 -3.1,1.7 -4.3,3 -1.2,1.3 -2.1,2.8 -2.7,4.5 -0.6,1.7 -1,3.6 -1,5.6 0,2 0.3,3.9 1,5.6 0.6,1.7 1.6,3.2 2.7,4.5 1.2,1.3 2.6,2.3 4.3,3 1.7,0.7 3.6,1.1 5.7,1.1 1.7,0 3.4,-0.1 4.9,-0.4 1.5,-0.3 2.9,-0.8 4.2,-1.5 v -10.9 H 958 v -2.7 h 10.8 z"
   id="path1646" />
	<path
   class="st2"
   d="m 977.6,10077.7 h 3 v 32.3 h -3 z"
   id="path1648" />
	<path
   class="st2"
   d="m 996.7,10080.4 h -11 v -2.7 h 25.1 v 2.7 h -11 v 29.6 h -3 v -29.6 z"
   id="path1650" />
	<path
   class="st2"
   d="m 1022.5,10077.7 h 3.1 l 13.6,32.3 h -3.4 l -3.5,-8.6 h -17.1 l -3.6,8.6 h -3.1 z m 1.4,3.3 -7.5,17.7 h 14.8 z"
   id="path1652" />
	<path
   class="st2"
   d="m 1043.8,10077.7 h 3 v 29.6 h 15 v 2.7 h -18.1 v -32.3 z"
   id="path1654" />
	<path
   class="st2"
   d="m 1088.4,10077.7 h 3.1 l 13.6,32.3 h -3.4 l -3.5,-8.6 h -17.1 l -3.6,8.6 h -3.1 z m 1.4,3.3 -7.5,17.7 h 14.8 z"
   id="path1656" />
	<path
   class="st2"
   d="m 1109.7,10077.7 h 3 v 29.6 h 15 v 2.7 h -18.1 v -32.3 z"
   id="path1658" />
	<path
   class="st2"
   d="m 1159.1,10104.9 c -1.6,2.1 -3.3,3.6 -5.4,4.5 -2,0.9 -4.2,1.4 -6.6,1.4 -2.5,0 -4.7,-0.4 -6.8,-1.3 -2.1,-0.8 -3.8,-2 -5.3,-3.5 -1.5,-1.5 -2.6,-3.3 -3.4,-5.4 -0.8,-2.1 -1.2,-4.4 -1.2,-6.8 0,-2.5 0.4,-4.7 1.2,-6.8 0.8,-2.1 2,-3.9 3.4,-5.4 1.5,-1.5 3.2,-2.7 5.3,-3.5 2.1,-0.8 4.3,-1.3 6.8,-1.3 2.2,0 4.2,0.4 6.1,1.2 1.9,0.8 3.6,2.1 5,3.9 l -2.5,2.1 c -1,-1.5 -2.3,-2.6 -3.9,-3.3 -1.6,-0.7 -3.2,-1 -4.8,-1 -2.1,0 -4,0.4 -5.7,1.1 -1.7,0.7 -3.1,1.7 -4.3,3 -1.2,1.3 -2.1,2.8 -2.7,4.5 -0.6,1.7 -1,3.6 -1,5.6 0,2 0.3,3.9 1,5.6 0.6,1.7 1.6,3.2 2.7,4.5 1.2,1.3 2.6,2.3 4.3,3 1.7,0.7 3.6,1.1 5.7,1.1 0.8,0 1.7,-0.1 2.6,-0.3 0.9,-0.2 1.7,-0.5 2.6,-0.9 0.8,-0.4 1.6,-0.9 2.4,-1.6 0.8,-0.6 1.4,-1.4 2,-2.3 z"
   id="path1660" />
	<path
   class="st2"
   d="m 1164.6,10077.7 h 3 v 14.2 h 18.1 v -14.2 h 3 v 32.3 h -3 v -15.3 h -18.1 v 15.3 h -3 z"
   id="path1662" />
	<path
   class="st2"
   d="m 1197.5,10077.7 h 19.7 v 2.7 h -16.7 v 11.5 h 15.7 v 2.7 h -15.7 v 12.6 h 17.5 v 2.7 h -20.5 z"
   id="path1664" />
	<path
   class="st2"
   d="m 1224.3,10077.7 h 4.5 l 11.8,27.1 11.8,-27.1 h 4.3 v 32.3 h -3 v -28.5 h -0.1 l -12.3,28.5 h -1.3 l -12.5,-28.5 h -0.1 v 28.5 h -3 v -32.3 z"
   id="path1666" />
	<path
   class="st2"
   d="m 1272.3,10096.1 -11.9,-18.4 h 3.6 l 9.8,15.3 10,-15.3 h 3.4 l -11.9,18.4 v 13.9 h -3 z"
   id="path1668" />
</g>








<metadata
   id="metadata2862"><rdf:RDF><cc:Work
       rdf:about=""><dc:title>GBC - Logo Vector</dc:title></cc:Work></rdf:RDF></metadata></svg>
