<?xml version="1.0" encoding="UTF-8" standalone="no"?>
<!-- Generator: Adobe Illustrator 20.1.0, SVG Export Plug-In . SVG Version: 6.00 Build 0)  -->

<svg
   version="1.1"
   id="Layer_1"
   x="0px"
   y="0px"
   viewBox="0 0 575.79996 575.8"
   xml:space="preserve"
   sodipodi:docname="predict.svg"
   width="575.79999"
   height="575.79999"
   inkscape:version="1.1.2 (0a00cf5339, 2022-02-04)"
   xmlns:inkscape="http://www.inkscape.org/namespaces/inkscape"
   xmlns:sodipodi="http://sodipodi.sourceforge.net/DTD/sodipodi-0.dtd"
   xmlns="http://www.w3.org/2000/svg"
   xmlns:svg="http://www.w3.org/2000/svg"
   xmlns:rdf="http://www.w3.org/1999/02/22-rdf-syntax-ns#"
   xmlns:cc="http://creativecommons.org/ns#"
   xmlns:dc="http://purl.org/dc/elements/1.1/"><defs
   id="defs1725" /><sodipodi:namedview
   id="namedview1723"
   pagecolor="#ffffff"
   bordercolor="#666666"
   borderopacity="1.0"
   inkscape:pageshadow="2"
   inkscape:pageopacity="0.0"
   inkscape:pagecheckerboard="0"
   showgrid="false"
   fit-margin-top="0"
   fit-margin-left="0"
   fit-margin-right="0"
   fit-margin-bottom="0"
   height="575.79999px"
   inkscape:zoom="0.23352794"
   inkscape:cx="-1141.1911"
   inkscape:cy="-1010.5857"
   inkscape:window-width="1920"
   inkscape:window-height="1026"
   inkscape:window-x="0"
   inkscape:window-y="26"
   inkscape:window-maximized="1"
   inkscape:current-layer="Layer_1" />
<style
   type="text/css"
   id="style2">
	.st0{fill:#2B2B2B;}
	.st1{fill:#00B7AB;}
	.st2{fill:#BCBCBC;}
	.st3{fill:#B72225;}
	.st4{fill:none;stroke:#FFFFFF;stroke-miterlimit:10;}
	.st5{opacity:0.7;}
	.st6{fill:#FFFFFF;}
	.st7{opacity:0.65;}
	.st8{fill:none;}
	.st9{opacity:0.5;}
	.st10{font-family:'Avenir-Light';}
	.st11{font-size:15px;}
	.st12{font-family:'Avenir-Black';}
	.st13{fill:#444445;}
	.st14{fill:#99999A;}
	.st15{fill:#595959;}
	.st16{fill:#EAEAEA;}
	.st17{fill:#ADADAD;}
	.st18{fill:#606060;}
</style>
<title
   id="title4">GBC - Logo Vector</title>









































































































































































<g
   id="g1228"
   transform="translate(-822.92069,-5433.673)">
	<path
   class="st2"
   d="m 914.9,5906 c 67.6,-117 133.8,-231.5 201.3,-348.4 67.5,116.7 133.7,231.4 201.3,348.4 -38.9,0 -75.2,0.1 -111.4,-0.2 -2.7,0 -6.5,-2 -7.9,-4.3 -8.5,-13.8 -16.5,-27.9 -26.3,-44.7 20.8,0 38.6,0 60.2,0 -39.2,-67.9 -76.6,-132.7 -115.8,-200.6 -39.2,67.8 -76.6,132.6 -115.8,200.5 22.4,0 40.9,0.6 59.3,-0.5 3.6,-0.2 7.7,-6.1 10.1,-10.2 15.3,-25.7 30.1,-51.5 46.4,-79.6 9.3,16.3 17.9,30.5 25.5,45.2 1.5,2.8 0.2,8.2 -1.5,11.3 -14.2,25.3 -28.7,50.4 -43.7,75.2 -2.2,3.6 -7.6,7.5 -11.5,7.5 -55.7,0.5 -111.4,0.4 -170.2,0.4 z"
   id="path1226" />
</g>



















































<metadata
   id="metadata1729"><rdf:RDF><cc:Work
       rdf:about=""><dc:title>GBC - Logo Vector</dc:title></cc:Work></rdf:RDF></metadata></svg>
