<?xml version="1.0" encoding="UTF-8" standalone="no"?>
<!-- Generator: Adobe Illustrator 20.1.0, SVG Export Plug-In . SVG Version: 6.00 Build 0)  -->

<svg
   version="1.1"
   id="Layer_1"
   x="0px"
   y="0px"
   viewBox="0 0 575.79997 575.79999"
   xml:space="preserve"
   sodipodi:docname="rune-craft.svg"
   width="575.79999"
   height="575.79999"
   inkscape:version="1.1.2 (0a00cf5339, 2022-02-04)"
   xmlns:inkscape="http://www.inkscape.org/namespaces/inkscape"
   xmlns:sodipodi="http://sodipodi.sourceforge.net/DTD/sodipodi-0.dtd"
   xmlns="http://www.w3.org/2000/svg"
   xmlns:svg="http://www.w3.org/2000/svg"
   xmlns:rdf="http://www.w3.org/1999/02/22-rdf-syntax-ns#"
   xmlns:cc="http://creativecommons.org/ns#"
   xmlns:dc="http://purl.org/dc/elements/1.1/"><defs
   id="defs1725" /><sodipodi:namedview
   id="namedview1723"
   pagecolor="#ffffff"
   bordercolor="#666666"
   borderopacity="1.0"
   inkscape:pageshadow="2"
   inkscape:pageopacity="0.0"
   inkscape:pagecheckerboard="0"
   showgrid="false"
   fit-margin-top="50"
   fit-margin-left="50"
   fit-margin-right="50"
   fit-margin-bottom="50"
   lock-margins="true"
   inkscape:zoom="0.46705588"
   inkscape:cx="-489.23482"
   inkscape:cy="239.8"
   inkscape:window-width="1920"
   inkscape:window-height="1026"
   inkscape:window-x="0"
   inkscape:window-y="26"
   inkscape:window-maximized="1"
   inkscape:current-layer="Layer_1"
   width="575.79999px" />
<style
   type="text/css"
   id="style2">
	.st0{fill:#2B2B2B;}
	.st1{fill:#00B7AB;}
	.st2{fill:#BCBCBC;}
	.st3{fill:#B72225;}
	.st4{fill:none;stroke:#FFFFFF;stroke-miterlimit:10;}
	.st5{opacity:0.7;}
	.st6{fill:#FFFFFF;}
	.st7{opacity:0.65;}
	.st8{fill:none;}
	.st9{opacity:0.5;}
	.st10{font-family:'Avenir-Light';}
	.st11{font-size:15px;}
	.st12{font-family:'Avenir-Black';}
	.st13{fill:#444445;}
	.st14{fill:#99999A;}
	.st15{fill:#595959;}
	.st16{fill:#EAEAEA;}
	.st17{fill:#ADADAD;}
	.st18{fill:#606060;}
</style>
<title
   id="title4">GBC - Logo Vector</title>




































































<g
   id="g500"
   transform="translate(-807.65082,-539.19642)">
	<path
   class="st6"
   d="m 963.1,776.4 c 12.6,11.3 23.5,20.2 33.1,30.2 3.9,4.1 7.2,10.9 6.9,16.4 -1.6,34.1 10.5,61.6 36.4,83.7 3.4,2.9 6,8.6 6.1,13.1 0.6,19 1.6,38.2 -0.2,57.1 -2,21.7 3.5,38.9 19.7,54.1 12.8,12 23.5,26.3 35.9,40.5 18.2,-20.9 35.4,-40.2 52,-60 2.5,-3 3,-8.2 3,-12.4 0.2,-25.5 -0.3,-51.1 0.2,-76.6 0.1,-4.9 2.5,-11.3 6,-14.3 27.7,-23 40,-52.2 37.9,-87.9 -0.2,-3.1 -0.7,-7.5 1.1,-9.2 11.4,-11 23.4,-21.5 37.7,-34.4 0,28.5 -1.4,53.2 0.4,77.7 1.8,24.2 -8.3,41.6 -24.8,57.2 -7,6.7 -12,15.6 -19.5,21.6 -18,14.5 -17.8,33.3 -15,53.4 1,-0.2 2.1,-0.1 2.5,-0.6 25.6,-29.3 51.4,-58.5 76.6,-88.1 3,-3.5 4.4,-9.5 4.5,-14.4 0.5,-30 0.4,-60 0.4,-90 0,-23.3 0,-46.7 0,-70.2 -2.1,0.2 -3.1,0 -3.6,0.4 -28.3,25.5 -56.7,50.9 -84.6,76.8 -2.2,2 -3.1,7.2 -2.4,10.4 7.3,34.2 -4.7,64.2 -34.5,82.5 -6.6,4 -8.5,8.2 -8.4,15.5 0.5,22.3 -1.7,44.9 1.1,66.8 3.5,27.7 -16.9,39.4 -30.6,57 -7.2,-8 -12.8,-15 -19.3,-21.1 -8.5,-8.1 -11.5,-17.5 -11.1,-29.3 0.9,-25.1 0.8,-50.3 0.2,-75.4 -0.1,-4.5 -3.4,-10.6 -7.1,-13.2 -28.1,-19.5 -41,-45.1 -34.1,-79.3 1.4,-7 -0.1,-11.9 -5.8,-16.9 -20.7,-18.2 -40.9,-36.9 -61.4,-55.4 -7.4,-6.7 -14.9,-13.2 -24.6,-21.8 0,7 0,10.9 0,14.8 0.1,41.4 1.5,82.8 -0.3,124.1 -1,23.9 4.9,42.4 22.1,59.5 21.7,21.5 40.8,45.6 61.7,69.4 4.6,-27.4 2.7,-35 -13,-52.9 -7.7,-8.9 -14.9,-18.3 -23.4,-26.3 -15.2,-14.3 -23.6,-30.2 -22.3,-52.1 1.7,-25.6 0.5,-51.4 0.5,-80.4 z m 185.3,-7.3 c 28.5,-26.4 56,-52 84.1,-78.1 -6.6,-5.9 -12.2,-11 -18.4,-16.5 -3.8,3.3 -7.2,6.1 -10.4,9.1 -16.6,15.4 -33,31.2 -50,46.2 -3.2,2.9 -9.2,5 -13.2,4.1 -9,-1.9 -17.5,-5.8 -27.8,-9.5 0,-42.4 0,-85.5 0,-128.6 -8.7,0 -15.8,0 -24.3,0 0,43.5 0,86.3 0,129.2 -5.7,1.6 -11.1,1.9 -14.8,4.4 -14.9,10.2 -24.4,2.4 -34.7,-8 -16.2,-16.3 -33.3,-31.6 -50.5,-47.8 -6.9,6.3 -12.8,11.6 -19.2,17.4 26.9,24.9 52.6,49 78.8,72.6 2.4,2.1 8.5,1.7 12.1,0.4 8.2,-3.1 15.6,-8.8 24,-11.3 23.9,-7.3 44.7,0.8 64.3,16.4 z m -13.9,60.2 c 0.1,-18.2 -14.3,-32.7 -33,-33.1 -19,-0.4 -34.1,14.4 -34,33.3 0.1,18.3 15,33.5 32.9,33.5 18.7,0.1 33.9,-14.9 34.1,-33.7 z"
   id="path492" />
	<path
   class="st13"
   d="m 963.1,776.4 c 0,28.9 1.2,54.8 -0.4,80.4 -1.3,21.8 7.1,37.8 22.3,52.1 8.5,8 15.7,17.5 23.4,26.3 15.6,17.9 17.6,25.5 13,52.9 -20.9,-23.7 -40,-47.8 -61.7,-69.4 -17.2,-17.1 -23.1,-35.6 -22.1,-59.5 1.7,-41.3 0.3,-82.7 0.3,-124.1 0,-3.9 0,-7.8 0,-14.8 9.7,8.6 17.2,15.1 24.6,21.8 20.4,18.5 40.6,37.2 61.4,55.4 5.6,4.9 7.2,9.8 5.8,16.9 -6.9,34.2 6.1,59.8 34.1,79.3 3.7,2.6 7,8.7 7.1,13.2 0.6,25.1 0.6,50.3 -0.2,75.4 -0.4,11.8 2.5,21.1 11.1,29.3 6.4,6.1 12,13.1 19.3,21.1 13.8,-17.7 34.1,-29.3 30.6,-57 -2.8,-22 -0.6,-44.5 -1.1,-66.8 -0.2,-7.2 1.8,-11.4 8.4,-15.5 29.8,-18.3 41.8,-48.3 34.5,-82.5 -0.7,-3.2 0.2,-8.4 2.4,-10.4 28,-25.8 56.3,-51.3 84.6,-76.8 0.4,-0.4 1.5,-0.2 3.6,-0.4 0,23.5 0,46.8 0,70.2 0,30 0.1,60 -0.4,90 -0.1,4.9 -1.4,10.8 -4.5,14.4 -25.2,29.6 -51,58.8 -76.6,88.1 -0.4,0.5 -1.4,0.4 -2.5,0.6 -2.8,-20.1 -3,-38.9 15,-53.4 7.5,-6 12.5,-15 19.5,-21.6 16.5,-15.6 26.6,-33 24.8,-57.2 -1.8,-24.5 -0.4,-49.1 -0.4,-77.7 -14.4,13 -26.3,23.4 -37.7,34.4 -1.7,1.7 -1.3,6.1 -1.1,9.2 2.1,35.7 -10.2,64.9 -37.9,87.9 -3.6,3 -5.9,9.4 -6,14.3 -0.5,25.5 0,51.1 -0.2,76.6 0,4.2 -0.6,9.5 -3,12.4 -16.6,19.8 -33.8,39.2 -52,60 -12.4,-14.2 -23,-28.5 -35.9,-40.5 -16.2,-15.1 -21.7,-32.3 -19.7,-54.1 1.8,-18.9 0.8,-38.1 0.2,-57.1 -0.2,-4.5 -2.7,-10.2 -6.1,-13.1 -25.9,-22.1 -38,-49.6 -36.4,-83.7 0.3,-5.4 -3.1,-12.3 -6.9,-16.4 -9.7,-10 -20.6,-18.8 -33.2,-30.2 z"
   id="path494" />
	<path
   class="st14"
   d="m 1148.4,769.1 c -19.6,-15.6 -40.3,-23.7 -64.2,-16.5 -8.4,2.5 -15.7,8.2 -24,11.3 -3.6,1.4 -9.8,1.7 -12.1,-0.4 -26.2,-23.5 -51.9,-47.7 -78.8,-72.6 6.4,-5.8 12.3,-11.1 19.2,-17.4 17.2,16.2 34.3,31.5 50.5,47.8 10.3,10.4 19.8,18.3 34.7,8 3.7,-2.6 9.1,-2.8 14.8,-4.4 0,-43 0,-85.8 0,-129.2 8.4,0 15.6,0 24.3,0 0,43.1 0,86.2 0,128.6 10.3,3.7 18.8,7.6 27.8,9.5 4,0.8 10,-1.3 13.2,-4.1 17,-15 33.4,-30.8 50,-46.2 3.2,-3 6.6,-5.8 10.4,-9.1 6.2,5.6 11.8,10.6 18.4,16.5 -28.2,26.2 -55.8,51.8 -84.2,78.2 z"
   id="path496" />
	<path
   class="st1"
   d="m 1134.5,829.3 c -0.1,18.7 -15.4,33.8 -34.1,33.7 -17.9,0 -32.8,-15.2 -32.9,-33.5 -0.1,-18.8 15,-33.6 34,-33.3 18.7,0.4 33.1,14.9 33,33.1 z"
   id="path498" />
</g>
























































































































































<metadata
   id="metadata1807"><rdf:RDF><cc:Work
       rdf:about=""><dc:title>GBC - Logo Vector</dc:title></cc:Work></rdf:RDF></metadata></svg>
