<?xml version="1.0" encoding="UTF-8" standalone="no"?>
<!-- Generator: Adobe Illustrator 20.1.0, SVG Export Plug-In . SVG Version: 6.00 Build 0)  -->

<svg
   version="1.1"
   id="Layer_1"
   x="0px"
   y="0px"
   viewBox="0 0 575.79997 575.79999"
   xml:space="preserve"
   sodipodi:docname="summon.svg"
   width="575.79999"
   height="575.79999"
   inkscape:version="1.1.2 (0a00cf5339, 2022-02-04)"
   xmlns:inkscape="http://www.inkscape.org/namespaces/inkscape"
   xmlns:sodipodi="http://sodipodi.sourceforge.net/DTD/sodipodi-0.dtd"
   xmlns="http://www.w3.org/2000/svg"
   xmlns:svg="http://www.w3.org/2000/svg"
   xmlns:rdf="http://www.w3.org/1999/02/22-rdf-syntax-ns#"
   xmlns:cc="http://creativecommons.org/ns#"
   xmlns:dc="http://purl.org/dc/elements/1.1/"><defs
   id="defs1725" /><sodipodi:namedview
   id="namedview1723"
   pagecolor="#ffffff"
   bordercolor="#666666"
   borderopacity="1.0"
   inkscape:pageshadow="2"
   inkscape:pageopacity="0.0"
   inkscape:pagecheckerboard="0"
   showgrid="false"
   fit-margin-top="0"
   fit-margin-left="0"
   fit-margin-right="0"
   fit-margin-bottom="0"
   inkscape:zoom="0.46705588"
   inkscape:cx="-170.21518"
   inkscape:cy="-196.97857"
   inkscape:window-width="1920"
   inkscape:window-height="1026"
   inkscape:window-x="0"
   inkscape:window-y="26"
   inkscape:window-maximized="1"
   inkscape:current-layer="Layer_1" />
<style
   type="text/css"
   id="style2">
	.st0{fill:#2B2B2B;}
	.st1{fill:#00B7AB;}
	.st2{fill:#BCBCBC;}
	.st3{fill:#B72225;}
	.st4{fill:none;stroke:#FFFFFF;stroke-miterlimit:10;}
	.st5{opacity:0.7;}
	.st6{fill:#FFFFFF;}
	.st7{opacity:0.65;}
	.st8{fill:none;}
	.st9{opacity:0.5;}
	.st10{font-family:'Avenir-Light';}
	.st11{font-size:15px;}
	.st12{font-family:'Avenir-Black';}
	.st13{fill:#444445;}
	.st14{fill:#99999A;}
	.st15{fill:#595959;}
	.st16{fill:#EAEAEA;}
	.st17{fill:#ADADAD;}
	.st18{fill:#606060;}
</style>
<title
   id="title4">GBC - Logo Vector</title>


















































































































<path
   class="st2"
   d="m 406.48091,376.56824 c -31.9,-57.6 -62.7,-113.4 -93.7,-169.1 -15.6,-28 -15.7,-27.9 5,-56.3 45.9,78.1 91.4,155.5 137.7,234.3 -17.7,10.7 -35,21.3 -52.4,31.7 -35.1,21 -70.3,41.9 -105.7,62.5 -3.9,2.2 -10.7,3.9 -13.9,2 -51.4,-29.7 -102.5,-60 -153.4,-91.7 25.2,1 50.6,-8 75,7.5 24.2,15.3 49.8,28.7 75,42.4 4,2.2 10.9,4 14.2,2.1 37.2,-21.1 74,-43 112.2,-65.4 z"
   id="path888" />
<path
   class="st1"
   d="m 163.18091,320.06824 c 44.7,-79.4 88.6,-157.3 133.1,-236.299996 41.8,23.399996 82.8,46.299996 123.8,69.199996 1.7,0.9 3.4,1.9 5.1,2.9 13.3,7.9 31.9,12.8 38.6,24.5 6.8,11.8 2,30.3 2,45.9 0.1,44.8 0,89.7 -1.6,135.3 -11.3,-23.1 -32.4,-41.4 -32.8,-69.7 -0.4,-27.8 0.2,-55.6 -0.4,-83.4 -0.1,-4.9 -2.6,-12.1 -6.3,-14.2 -37.8,-22 -76.1,-43.1 -115.3,-65 -2.7,4.2 -5.1,7.7 -7.2,11.4 -29.6,52.5 -59.3,105.1 -88.8,157.7 -14.8,26.5 -16.6,27.5 -50.2,21.7 z"
   id="path890" />
<path
   class="st13"
   d="m 145.98091,338.16824 c 32.2,0 61.9,0 91.6,0 38.6,0 77.1,0.6 115.7,-0.3 13.4,-0.3 22.1,3.1 26.8,15.9 2,5.3 5.2,10.2 8.4,16.3 -92.5,0 -183.5,0 -276,0 0,-16.7 0,-32.6 0,-48.6 0,-43.9 -0.2,-87.9 0.3,-131.8 0.1,-4.9 2.5,-12.2 6.2,-14.4 49.5,-29.1 99.5,-57.4 151.1,-84.699996 -12.4,19.299996 -15.1,44.399996 -37.4,57.299996 -25.7,14.9 -51.5,29.7 -76.8,45.2 -4.3,2.6 -9.3,8.4 -9.4,12.7 -0.8,43.5 -0.5,86.9 -0.5,132.4 z"
   id="path892" />








































































































<metadata
   id="metadata1727"><rdf:RDF><cc:Work
       rdf:about=""><dc:title>GBC - Logo Vector</dc:title></cc:Work></rdf:RDF></metadata></svg>
