<?xml version="1.0" encoding="UTF-8" standalone="no"?>
<!-- Generator: Adobe Illustrator 20.1.0, SVG Export Plug-In . SVG Version: 6.00 Build 0)  -->

<svg
   version="1.1"
   id="Layer_1"
   x="0px"
   y="0px"
   viewBox="0 0 575.79996 575.79993"
   xml:space="preserve"
   sodipodi:docname="transmute.svg"
   width="575.79999"
   height="575.79993"
   inkscape:version="1.1.2 (0a00cf5339, 2022-02-04)"
   xmlns:inkscape="http://www.inkscape.org/namespaces/inkscape"
   xmlns:sodipodi="http://sodipodi.sourceforge.net/DTD/sodipodi-0.dtd"
   xmlns="http://www.w3.org/2000/svg"
   xmlns:svg="http://www.w3.org/2000/svg"
   xmlns:rdf="http://www.w3.org/1999/02/22-rdf-syntax-ns#"
   xmlns:cc="http://creativecommons.org/ns#"
   xmlns:dc="http://purl.org/dc/elements/1.1/"><defs
   id="defs1725" /><sodipodi:namedview
   id="namedview1723"
   pagecolor="#ffffff"
   bordercolor="#666666"
   borderopacity="1.0"
   inkscape:pageshadow="2"
   inkscape:pageopacity="0.0"
   inkscape:pagecheckerboard="0"
   showgrid="false"
   fit-margin-top="0"
   fit-margin-left="0"
   fit-margin-right="0"
   fit-margin-bottom="0"
   lock-margins="true"
   inkscape:zoom="0.66051676"
   inkscape:cx="123.38824"
   inkscape:cy="81.754171"
   inkscape:window-width="1920"
   inkscape:window-height="1026"
   inkscape:window-x="0"
   inkscape:window-y="26"
   inkscape:window-maximized="1"
   inkscape:current-layer="Layer_1" />
<style
   type="text/css"
   id="style2">
	.st0{fill:#2B2B2B;}
	.st1{fill:#00B7AB;}
	.st2{fill:#BCBCBC;}
	.st3{fill:#B72225;}
	.st4{fill:none;stroke:#FFFFFF;stroke-miterlimit:10;}
	.st5{opacity:0.7;}
	.st6{fill:#FFFFFF;}
	.st7{opacity:0.65;}
	.st8{fill:none;}
	.st9{opacity:0.5;}
	.st10{font-family:'Avenir-Light';}
	.st11{font-size:15px;}
	.st12{font-family:'Avenir-Black';}
	.st13{fill:#444445;}
	.st14{fill:#99999A;}
	.st15{fill:#595959;}
	.st16{fill:#EAEAEA;}
	.st17{fill:#ADADAD;}
	.st18{fill:#606060;}
</style>
<title
   id="title4">GBC - Logo Vector</title>




















































































<path
   class="st1"
   d="m 285.78402,308.88933 c 28,-13.8 55.2,-27.3 82.4,-40.5 2.2,-1 5.7,-0.1 8.3,0.7 16.9,5.1 33.6,10.4 51.2,14.2 -2.7,-1.7 -5.4,-3.5 -8.2,-5.1 -28.7,-16.5 -57.3,-33.1 -86.1,-49.3 -5.4,-3 -8.1,-6.4 -8.1,-13 0.4,-25.5 0.1,-51.1 0.1,-78.1 58.7,56.5 117.1,112.7 177.8,171.1 -73.8,0 -144.7,0 -217.4,0 z"
   id="path692" />
<path
   class="st13"
   d="m 279.58402,272.88933 c -27.1,13.4 -53.7,26.7 -80.4,39.6 -2.5,1.2 -6.3,0.8 -9.1,0 -17.2,-5 -34.2,-10.4 -52.1,-14.1 16.8,9.7 33.7,19.5 50.5,29.2 15.3,8.8 30.8,17.5 46,26.5 2.4,1.5 5.5,4.6 5.5,6.9 0.4,27.1 0.2,54.2 0.2,82.5 -58.6,-56.3 -116.8,-112.4 -177.299999,-170.6 73.699999,0 144.799999,0 216.699999,0 z"
   id="path694" />
<path
   class="st2"
   d="m 264.98402,294.08933 c 10.7,21.6 20.2,43.4 32.1,63.9 8.4,14.4 9.2,27.4 3,42.3 -4.6,11.1 -7.5,22.9 -9.7,35.2 1.7,-2.7 3.4,-5.3 5,-8 16.5,-28.7 33.2,-57.3 49.4,-86.1 3,-5.4 6.1,-8.3 12.7,-8.2 25.6,0.3 51.1,0.1 78.3,0.1 -56.4,58.6 -112.6,116.9 -170.9,177.5 0.1,-73.7 0.1,-144.8 0.1,-216.7 z"
   id="path696" />
<path
   class="st2"
   d="m 301.58402,74.389326 c 0,70.800004 0,141.500004 0,213.800004 -8.2,-16.4 -16.1,-31.9 -23.8,-47.6 -6.1,-12.3 -15.6,-24.5 -16.7,-37.3 -1,-12.4 6.7,-25.6 10.6,-38.4 1.8,-5.9 3.7,-11.7 3.8,-18.3 -5.6,9.7 -11.3,19.3 -16.9,29 -12.6,21.9 -25.4,43.7 -37.6,65.7 -3.1,5.6 -6.7,7.9 -13.2,7.8 -25.2,-0.3 -50.5,-0.1 -78,-0.1 57,-59.1 113,-117.2 169,-175.300004 1,0.3 1.9,0.5 2.8,0.7 z"
   id="path698" />





































































































































<metadata
   id="metadata1727"><rdf:RDF><cc:Work
       rdf:about=""><dc:title>GBC - Logo Vector</dc:title></cc:Work></rdf:RDF></metadata></svg>
